<mxfile host="app.diagrams.net" modified="2021-07-11T12:17:31.527Z" agent="5.0 (Windows NT 10.0; Win64; x64) AppleWebKit/537.36 (KHTML, like Gecko) Chrome/91.0.4472.124 Safari/537.36" etag="7OovB6ieecu9IuHoBnw2" version="14.8.5" type="github">
  <diagram id="C5RBs43oDa-KdzZeNtuy" name="Page-1">
    <mxGraphModel dx="1422" dy="762" grid="1" gridSize="10" guides="1" tooltips="1" connect="1" arrows="1" fold="1" page="1" pageScale="1" pageWidth="1169" pageHeight="827" math="0" shadow="0">
      <root>
        <mxCell id="WIyWlLk6GJQsqaUBKTNV-0" />
        <mxCell id="WIyWlLk6GJQsqaUBKTNV-1" parent="WIyWlLk6GJQsqaUBKTNV-0" />
        <mxCell id="XL-IiFmOH-v3kFPVlvHK-0" value="CDFlow" style="swimlane;fontStyle=0;childLayout=stackLayout;horizontal=1;startSize=26;horizontalStack=0;resizeParent=1;resizeParentMax=0;resizeLast=0;collapsible=1;marginBottom=0;" vertex="1" parent="WIyWlLk6GJQsqaUBKTNV-1">
          <mxGeometry x="40" y="680" width="140" height="52" as="geometry" />
        </mxCell>
        <mxCell id="XL-IiFmOH-v3kFPVlvHK-1" value="2021072021" style="text;strokeColor=none;fillColor=none;align=left;verticalAlign=top;spacingLeft=4;spacingRight=4;overflow=hidden;rotatable=0;points=[[0,0.5],[1,0.5]];portConstraint=eastwest;" vertex="1" parent="XL-IiFmOH-v3kFPVlvHK-0">
          <mxGeometry y="26" width="140" height="26" as="geometry" />
        </mxCell>
        <mxCell id="XL-IiFmOH-v3kFPVlvHK-5" value="Build &lt;br&gt;test static&lt;br&gt;package" style="rounded=1;whiteSpace=wrap;html=1;shadow=1;sketch=1;fillColor=#fff2cc;strokeColor=#d6b656;" vertex="1" parent="WIyWlLk6GJQsqaUBKTNV-1">
          <mxGeometry x="50" y="280" width="80" height="50" as="geometry" />
        </mxCell>
        <mxCell id="XL-IiFmOH-v3kFPVlvHK-17" style="edgeStyle=orthogonalEdgeStyle;rounded=1;orthogonalLoop=1;jettySize=auto;html=1;exitX=1;exitY=0.5;exitDx=0;exitDy=0;entryX=0;entryY=0.5;entryDx=0;entryDy=0;fillColor=#fff2cc;strokeColor=#d6b656;" edge="1" parent="WIyWlLk6GJQsqaUBKTNV-1" source="XL-IiFmOH-v3kFPVlvHK-6" target="XL-IiFmOH-v3kFPVlvHK-7">
          <mxGeometry relative="1" as="geometry" />
        </mxCell>
        <mxCell id="XL-IiFmOH-v3kFPVlvHK-6" value="deploy" style="rounded=1;whiteSpace=wrap;html=1;shadow=1;sketch=1;fillColor=#fff2cc;strokeColor=#d6b656;" vertex="1" parent="WIyWlLk6GJQsqaUBKTNV-1">
          <mxGeometry x="170" y="280" width="80" height="50" as="geometry" />
        </mxCell>
        <mxCell id="XL-IiFmOH-v3kFPVlvHK-18" style="edgeStyle=orthogonalEdgeStyle;rounded=1;orthogonalLoop=1;jettySize=auto;html=1;exitX=1;exitY=0.5;exitDx=0;exitDy=0;entryX=0;entryY=0.5;entryDx=0;entryDy=0;" edge="1" parent="WIyWlLk6GJQsqaUBKTNV-1" source="XL-IiFmOH-v3kFPVlvHK-7" target="XL-IiFmOH-v3kFPVlvHK-10">
          <mxGeometry relative="1" as="geometry" />
        </mxCell>
        <mxCell id="XL-IiFmOH-v3kFPVlvHK-7" value="test" style="rounded=1;whiteSpace=wrap;html=1;shadow=1;sketch=1;fillColor=#fff2cc;strokeColor=#d6b656;" vertex="1" parent="WIyWlLk6GJQsqaUBKTNV-1">
          <mxGeometry x="290" y="280" width="80" height="50" as="geometry" />
        </mxCell>
        <mxCell id="XL-IiFmOH-v3kFPVlvHK-19" style="edgeStyle=orthogonalEdgeStyle;rounded=1;orthogonalLoop=1;jettySize=auto;html=1;exitX=1;exitY=0.5;exitDx=0;exitDy=0;entryX=0;entryY=0.5;entryDx=0;entryDy=0;fillColor=#d5e8d4;strokeColor=#82b366;" edge="1" parent="WIyWlLk6GJQsqaUBKTNV-1" source="XL-IiFmOH-v3kFPVlvHK-10" target="XL-IiFmOH-v3kFPVlvHK-11">
          <mxGeometry relative="1" as="geometry" />
        </mxCell>
        <mxCell id="XL-IiFmOH-v3kFPVlvHK-10" value="get" style="rounded=1;whiteSpace=wrap;html=1;shadow=1;sketch=1;fillColor=#d5e8d4;strokeColor=#82b366;" vertex="1" parent="WIyWlLk6GJQsqaUBKTNV-1">
          <mxGeometry x="440" y="280" width="80" height="50" as="geometry" />
        </mxCell>
        <mxCell id="XL-IiFmOH-v3kFPVlvHK-20" style="edgeStyle=orthogonalEdgeStyle;rounded=1;orthogonalLoop=1;jettySize=auto;html=1;entryX=0;entryY=0.5;entryDx=0;entryDy=0;fillColor=#d5e8d4;strokeColor=#82b366;" edge="1" parent="WIyWlLk6GJQsqaUBKTNV-1" source="XL-IiFmOH-v3kFPVlvHK-11" target="XL-IiFmOH-v3kFPVlvHK-12">
          <mxGeometry relative="1" as="geometry" />
        </mxCell>
        <mxCell id="XL-IiFmOH-v3kFPVlvHK-11" value="deploy" style="rounded=1;whiteSpace=wrap;html=1;shadow=1;sketch=1;fillColor=#d5e8d4;strokeColor=#82b366;" vertex="1" parent="WIyWlLk6GJQsqaUBKTNV-1">
          <mxGeometry x="560" y="280" width="80" height="50" as="geometry" />
        </mxCell>
        <mxCell id="XL-IiFmOH-v3kFPVlvHK-21" style="edgeStyle=orthogonalEdgeStyle;rounded=1;orthogonalLoop=1;jettySize=auto;html=1;exitX=1;exitY=0.5;exitDx=0;exitDy=0;entryX=0;entryY=0.5;entryDx=0;entryDy=0;fillColor=#d5e8d4;strokeColor=#82b366;" edge="1" parent="WIyWlLk6GJQsqaUBKTNV-1" source="XL-IiFmOH-v3kFPVlvHK-12" target="XL-IiFmOH-v3kFPVlvHK-13">
          <mxGeometry relative="1" as="geometry" />
        </mxCell>
        <mxCell id="XL-IiFmOH-v3kFPVlvHK-12" value="test" style="rounded=1;whiteSpace=wrap;html=1;shadow=1;sketch=1;fillColor=#d5e8d4;strokeColor=#82b366;" vertex="1" parent="WIyWlLk6GJQsqaUBKTNV-1">
          <mxGeometry x="680" y="280" width="80" height="50" as="geometry" />
        </mxCell>
        <mxCell id="XL-IiFmOH-v3kFPVlvHK-22" style="edgeStyle=orthogonalEdgeStyle;rounded=1;orthogonalLoop=1;jettySize=auto;html=1;exitX=1;exitY=0.5;exitDx=0;exitDy=0;entryX=0;entryY=0.5;entryDx=0;entryDy=0;fillColor=#d5e8d4;strokeColor=#82b366;" edge="1" parent="WIyWlLk6GJQsqaUBKTNV-1" source="XL-IiFmOH-v3kFPVlvHK-13" target="XL-IiFmOH-v3kFPVlvHK-14">
          <mxGeometry relative="1" as="geometry" />
        </mxCell>
        <mxCell id="XL-IiFmOH-v3kFPVlvHK-13" value="deploy" style="rounded=1;whiteSpace=wrap;html=1;shadow=1;sketch=1;fillColor=#d5e8d4;strokeColor=#82b366;" vertex="1" parent="WIyWlLk6GJQsqaUBKTNV-1">
          <mxGeometry x="800" y="280" width="80" height="50" as="geometry" />
        </mxCell>
        <mxCell id="XL-IiFmOH-v3kFPVlvHK-23" style="edgeStyle=orthogonalEdgeStyle;rounded=1;orthogonalLoop=1;jettySize=auto;html=1;exitX=1;exitY=0.5;exitDx=0;exitDy=0;entryX=0;entryY=0.5;entryDx=0;entryDy=0;fillColor=#d5e8d4;strokeColor=#82b366;" edge="1" parent="WIyWlLk6GJQsqaUBKTNV-1" source="XL-IiFmOH-v3kFPVlvHK-14" target="XL-IiFmOH-v3kFPVlvHK-15">
          <mxGeometry relative="1" as="geometry" />
        </mxCell>
        <mxCell id="XL-IiFmOH-v3kFPVlvHK-14" value="test" style="rounded=1;whiteSpace=wrap;html=1;shadow=1;sketch=1;fillColor=#d5e8d4;strokeColor=#82b366;" vertex="1" parent="WIyWlLk6GJQsqaUBKTNV-1">
          <mxGeometry x="920" y="280" width="80" height="50" as="geometry" />
        </mxCell>
        <mxCell id="XL-IiFmOH-v3kFPVlvHK-15" value="Deploy" style="rounded=1;whiteSpace=wrap;html=1;shadow=1;sketch=1;fillColor=#d5e8d4;strokeColor=#82b366;" vertex="1" parent="WIyWlLk6GJQsqaUBKTNV-1">
          <mxGeometry x="1040" y="280" width="80" height="50" as="geometry" />
        </mxCell>
        <mxCell id="XL-IiFmOH-v3kFPVlvHK-16" value="" style="endArrow=classic;html=1;exitX=1;exitY=0.5;exitDx=0;exitDy=0;entryX=0;entryY=0.5;entryDx=0;entryDy=0;fillColor=#fff2cc;strokeColor=#d6b656;" edge="1" parent="WIyWlLk6GJQsqaUBKTNV-1" source="XL-IiFmOH-v3kFPVlvHK-5" target="XL-IiFmOH-v3kFPVlvHK-6">
          <mxGeometry width="50" height="50" relative="1" as="geometry">
            <mxPoint x="560" y="410" as="sourcePoint" />
            <mxPoint x="610" y="360" as="targetPoint" />
          </mxGeometry>
        </mxCell>
        <mxCell id="XL-IiFmOH-v3kFPVlvHK-24" value="Build" style="whiteSpace=wrap;html=1;aspect=fixed;rounded=0;shadow=1;sketch=1;fillColor=#dae8fc;strokeColor=#6c8ebf;" vertex="1" parent="WIyWlLk6GJQsqaUBKTNV-1">
          <mxGeometry x="50" y="140" width="80" height="80" as="geometry" />
        </mxCell>
        <mxCell id="XL-IiFmOH-v3kFPVlvHK-25" style="edgeStyle=orthogonalEdgeStyle;rounded=1;orthogonalLoop=1;jettySize=auto;html=1;exitX=0.5;exitY=1;exitDx=0;exitDy=0;fillColor=#dae8fc;strokeColor=#6c8ebf;" edge="1" parent="WIyWlLk6GJQsqaUBKTNV-1" source="XL-IiFmOH-v3kFPVlvHK-24" target="XL-IiFmOH-v3kFPVlvHK-24">
          <mxGeometry relative="1" as="geometry" />
        </mxCell>
        <mxCell id="XL-IiFmOH-v3kFPVlvHK-26" value="Dev" style="whiteSpace=wrap;html=1;aspect=fixed;rounded=0;shadow=1;sketch=1;fillColor=#dae8fc;strokeColor=#6c8ebf;" vertex="1" parent="WIyWlLk6GJQsqaUBKTNV-1">
          <mxGeometry x="230" y="140" width="80" height="80" as="geometry" />
        </mxCell>
        <mxCell id="XL-IiFmOH-v3kFPVlvHK-29" value="Test" style="whiteSpace=wrap;html=1;aspect=fixed;rounded=0;shadow=1;sketch=1;fillColor=#dae8fc;strokeColor=#6c8ebf;" vertex="1" parent="WIyWlLk6GJQsqaUBKTNV-1">
          <mxGeometry x="620" y="140" width="80" height="80" as="geometry" />
        </mxCell>
        <mxCell id="XL-IiFmOH-v3kFPVlvHK-30" value="Acceptance" style="whiteSpace=wrap;html=1;aspect=fixed;rounded=0;shadow=1;sketch=1;fillColor=#dae8fc;strokeColor=#6c8ebf;" vertex="1" parent="WIyWlLk6GJQsqaUBKTNV-1">
          <mxGeometry x="860" y="140" width="80" height="80" as="geometry" />
        </mxCell>
        <mxCell id="XL-IiFmOH-v3kFPVlvHK-31" value="Production" style="whiteSpace=wrap;html=1;aspect=fixed;rounded=0;shadow=1;sketch=1;fillColor=#dae8fc;strokeColor=#6c8ebf;" vertex="1" parent="WIyWlLk6GJQsqaUBKTNV-1">
          <mxGeometry x="1040" y="140" width="80" height="80" as="geometry" />
        </mxCell>
      </root>
    </mxGraphModel>
  </diagram>
</mxfile>
